<?xml version="1.0" encoding="utf-8"?>
<!-- Generator: Adobe Illustrator 21.0.0, SVG Export Plug-In . SVG Version: 6.00 Build 0)  -->
<svg version="1.1" id="Capa_1" xmlns="http://www.w3.org/2000/svg" xmlns:xlink="http://www.w3.org/1999/xlink" x="0px" y="0px"
	 viewBox="0 0 512 512" style="enable-background:new 0 0 512 512;" xml:space="preserve">
<style type="text/css">
	.st0{fill:#32A3A6;}
</style>
<g>
	<g>
		<path class="st0" d="M511.9,156.9c0-0.1,0-0.1,0-0.2c0-67.3-54.6-121.9-121.9-121.9S268.1,89.4,268.1,156.7S322.7,278.6,390,278.6
			c13.8,0,27.1-2.4,39.5-6.7c-27.4,157.3-150.1,258.8-36.4,175.3C519.2,354.6,512,160.4,511.9,156.9z"/>
		<path class="st0" d="M121.9,278.6c13.8,0,27.1-2.4,39.5-6.7C133.9,429.2,11.3,530.7,125,447.2c126.1-92.6,118.9-286.8,118.8-290.3
			c0-0.1,0-0.1,0-0.2c0-67.3-54.6-121.9-121.9-121.9C54.6,34.8,0,89.4,0,156.7S54.6,278.6,121.9,278.6z"/>
	</g>
</g>
</svg>
